<svg xmlns="http://www.w3.org/2000/svg" viewBox="0 0 347.84 183.25"><defs><style>.cls-1{fill:#ff292a;}.cls-2{fill:#191919;}.cls-3{fill:#0e95eb;}.cls-4{fill:#c81313;}</style></defs><g id="Layer_2" data-name="Layer 2"><g id="Layer_2-2" data-name="Layer 2"><rect class="cls-1" x="16.02" y="5" width="274.37" height="173.25"/><path class="cls-2" d="M285.39,10V173.25H21V10H285.39m10-10H11V183.25H295.39V0Z"/><rect class="cls-2" x="48.72" y="25.15" width="134.51" height="134.51"/><rect class="cls-2" x="183.23" y="56.13" width="17.49" height="69.86"/><rect class="cls-2" x="200.72" y="77" width="136.9" height="29.44"/><rect class="cls-3" x="5" y="44.16" width="1.02" height="90.38"/><polygon class="cls-2" points="11.02 39.16 0 39.16 0 139.54 11.02 139.54 11.02 39.16 11.02 39.16"/><rect class="cls-1" x="337.62" y="77" width="10.22" height="29.44"/><rect class="cls-1" x="61.67" y="39.16" width="107.43" height="107.43"/><rect class="cls-4" x="61.67" y="92.41" width="107.43" height="54.18"/><polygon class="cls-4" points="200.72 106.44 200.72 125.98 183.23 125.98 183.23 159.66 48.72 159.66 48.72 92.88 21.02 92.88 21.02 173.34 48.72 173.34 285.37 173.34 285.37 159.66 285.37 106.44 200.72 106.44"/><rect class="cls-4" x="337.62" y="91.72" width="10.22" height="14.72"/></g></g></svg>