<?xml version="1.0" encoding="UTF-8" standalone="no"?>
<!DOCTYPE svg PUBLIC "-//W3C//DTD SVG 1.1//EN"
 "http://www.w3.org/Graphics/SVG/1.1/DTD/svg11.dtd">
<!-- Generated by graphviz version 2.40.1 (20161225.0304)
 -->
<!-- Title: G Pages: 1 -->
<svg width="382pt" height="388pt"
 viewBox="0.00 0.00 381.95 388.00" xmlns="http://www.w3.org/2000/svg" xmlns:xlink="http://www.w3.org/1999/xlink">
<g id="graph0" class="graph" transform="scale(1 1) rotate(0) translate(4 384)">
<title>G</title>
<polygon fill="#ffffff" stroke="transparent" points="-4,4 -4,-384 377.9455,-384 377.9455,4 -4,4"/>
<!-- A0 -->
<g id="node1" class="node">
<title>A0</title>
<polygon fill="none" stroke="#000000" points="255.3437,-380 177.1953,-380 177.1953,-344 255.3437,-344 255.3437,-380"/>
<text text-anchor="middle" x="216.2695" y="-359" font-family="Helvetica,sans-Serif" font-size="10.00" fill="#000000">Java_Code</text>
</g>
<!-- A1 -->
<g id="node2" class="node">
<title>A1</title>
<polygon fill="none" stroke="#000000" points="140.4898,-294 50.0492,-294 50.0492,-258 140.4898,-258 140.4898,-294"/>
<text text-anchor="middle" x="95.2695" y="-279" font-family="Helvetica,sans-Serif" font-size="10.00" fill="#000000">Player</text>
<text text-anchor="middle" x="95.2695" y="-267" font-family="Helvetica,sans-Serif" font-size="10.00" fill="#000000">(TankFactory)</text>
</g>
<!-- A0&#45;&gt;A1 -->
<g id="edge1" class="edge">
<title>A0&#45;&gt;A1</title>
<path fill="none" stroke="#000000" d="M190.9039,-343.9716C172.9149,-331.186 148.5838,-313.8928 128.9656,-299.9493"/>
<polygon fill="#000000" stroke="#000000" points="120.6017,-294.0047 131.3596,-296.13 124.6772,-296.9013 128.7527,-299.798 128.7527,-299.798 128.7527,-299.798 124.6772,-296.9013 126.1457,-303.4659 120.6017,-294.0047 120.6017,-294.0047"/>
</g>
<!-- A2 -->
<g id="node3" class="node">
<title>A2</title>
<polygon fill="none" stroke="#000000" points="274.0637,-294 158.4753,-294 158.4753,-258 274.0637,-258 274.0637,-294"/>
<text text-anchor="middle" x="216.2695" y="-273" font-family="Helvetica,sans-Serif" font-size="10.00" fill="#000000">ExplosionAnimation</text>
</g>
<!-- A0&#45;&gt;A2 -->
<g id="edge2" class="edge">
<title>A0&#45;&gt;A2</title>
<path fill="none" stroke="#000000" d="M216.2695,-343.7616C216.2695,-332.3597 216.2695,-317.4342 216.2695,-304.494"/>
<polygon fill="#000000" stroke="#000000" points="216.2695,-294.2121 220.7696,-304.2121 216.2695,-299.2121 216.2696,-304.2121 216.2696,-304.2121 216.2696,-304.2121 216.2695,-299.2121 211.7696,-304.2121 216.2695,-294.2121 216.2695,-294.2121"/>
</g>
<!-- A3 -->
<g id="node4" class="node">
<title>A3</title>
<polygon fill="none" stroke="#000000" points="374.1223,-294 292.4167,-294 292.4167,-258 374.1223,-258 374.1223,-294"/>
<text text-anchor="middle" x="333.2695" y="-273" font-family="Helvetica,sans-Serif" font-size="10.00" fill="#000000">MenuPages</text>
</g>
<!-- A0&#45;&gt;A3 -->
<g id="edge3" class="edge">
<title>A0&#45;&gt;A3</title>
<path fill="none" stroke="#000000" d="M240.7965,-343.9716C258.1909,-331.186 281.7177,-313.8928 300.6873,-299.9493"/>
<polygon fill="#000000" stroke="#000000" points="308.7748,-294.0047 303.3824,-303.5532 304.746,-296.966 300.7173,-299.9273 300.7173,-299.9273 300.7173,-299.9273 304.746,-296.966 298.0521,-296.3014 308.7748,-294.0047 308.7748,-294.0047"/>
</g>
<!-- A4 -->
<g id="node5" class="node">
<title>A4</title>
<polygon fill="none" stroke="#000000" points="104.7665,-208 11.7725,-208 11.7725,-172 104.7665,-172 104.7665,-208"/>
<text text-anchor="middle" x="58.2695" y="-193" font-family="Helvetica,sans-Serif" font-size="10.00" fill="#000000">Weapon</text>
<text text-anchor="middle" x="58.2695" y="-181" font-family="Helvetica,sans-Serif" font-size="10.00" fill="#000000">(BulletFactory)</text>
</g>
<!-- A1&#45;&gt;A4 -->
<g id="edge4" class="edge">
<title>A1&#45;&gt;A4</title>
<path fill="none" stroke="#000000" d="M82.6625,-246.6972C77.1728,-233.9374 70.91,-219.3807 66.1049,-208.2121"/>
<polygon fill="#000000" stroke="#000000" points="82.6802,-246.7385 88.7258,-250.6692 87.4228,-257.7616 81.3771,-253.8309 82.6802,-246.7385"/>
</g>
<!-- A7 -->
<g id="node8" class="node">
<title>A7</title>
<polygon fill="none" stroke="#000000" points="186.4918,-122 106.0472,-122 106.0472,-86 186.4918,-86 186.4918,-122"/>
<text text-anchor="middle" x="146.2695" y="-101" font-family="Helvetica,sans-Serif" font-size="10.00" fill="#000000">Fisica FBox</text>
</g>
<!-- A1&#45;&gt;A7 -->
<g id="edge8" class="edge">
<title>A1&#45;&gt;A7</title>
<path fill="none" stroke="#000000" d="M104.0679,-246.3271C114.6669,-210.5813 132.1383,-151.6582 140.9033,-122.0977"/>
<polygon fill="none" stroke="#000000" points="104.0424,-246.4132 106.1717,-253.3028 100.631,-257.9181 98.5017,-251.0285 104.0424,-246.4132"/>
</g>
<!-- A5 -->
<g id="node6" class="node">
<title>A5</title>
<polygon fill="none" stroke="#000000" points="88.3097,-122 .2293,-122 .2293,-86 88.3097,-86 88.3097,-122"/>
<text text-anchor="middle" x="44.2695" y="-101" font-family="Helvetica,sans-Serif" font-size="10.00" fill="#000000">Fisica FCircle</text>
</g>
<!-- A4&#45;&gt;A5 -->
<g id="edge5" class="edge">
<title>A4&#45;&gt;A5</title>
<path fill="none" stroke="#000000" d="M53.3718,-159.9138C51.3256,-147.3446 49.0153,-133.1528 47.2343,-122.2121"/>
<polygon fill="none" stroke="#000000" points="53.3723,-159.9175 58.2844,-165.1968 55.3005,-171.7616 50.3883,-166.4823 53.3723,-159.9175"/>
</g>
<!-- A6 -->
<g id="node7" class="node">
<title>A6</title>
<polygon fill="none" stroke="#000000" points="138.0508,-36 52.4882,-36 52.4882,0 138.0508,0 138.0508,-36"/>
<text text-anchor="middle" x="95.2695" y="-15" font-family="Helvetica,sans-Serif" font-size="10.00" fill="#000000">Fisica FBody</text>
</g>
<!-- A5&#45;&gt;A6 -->
<g id="edge6" class="edge">
<title>A5&#45;&gt;A6</title>
<path fill="none" stroke="#000000" d="M60.2696,-77.0195C68.1491,-63.7325 77.4406,-48.0645 84.4693,-36.2121"/>
<polygon fill="none" stroke="#000000" points="57.1756,-75.375 55.0853,-85.7616 63.1966,-78.9456 57.1756,-75.375"/>
</g>
<!-- A7&#45;&gt;A6 -->
<g id="edge7" class="edge">
<title>A7&#45;&gt;A6</title>
<path fill="none" stroke="#000000" d="M130.2694,-77.0195C122.3899,-63.7325 113.0984,-48.0645 106.0697,-36.2121"/>
<polygon fill="none" stroke="#000000" points="127.3424,-78.9456 135.4537,-85.7616 133.3634,-75.375 127.3424,-78.9456"/>
</g>
</g>
</svg>
