<?xml version="1.0" encoding="UTF-8" standalone="no"?>
<!DOCTYPE svg PUBLIC "-//W3C//DTD SVG 1.1//EN"
 "http://www.w3.org/Graphics/SVG/1.1/DTD/svg11.dtd">
<!-- Generated by graphviz version 2.40.1 (20161225.0304)
 -->
<!-- Title: G Pages: 1 -->
<svg width="172pt" height="130pt"
 viewBox="0.00 0.00 172.02 130.00" xmlns="http://www.w3.org/2000/svg" xmlns:xlink="http://www.w3.org/1999/xlink">
<g id="graph0" class="graph" transform="scale(1 1) rotate(0) translate(4 126)">
<title>G</title>
<polygon fill="#ffffff" stroke="transparent" points="-4,4 -4,-126 168.018,-126 168.018,4 -4,4"/>
<!-- A0 -->
<g id="node1" class="node">
<title>A0</title>
<polygon fill="none" stroke="#000000" points="124.7506,-122 40.4924,-122 40.4924,-86 124.7506,-86 124.7506,-122"/>
<text text-anchor="middle" x="82.6215" y="-101" font-family="Helvetica,sans-Serif" font-size="10.00" fill="#000000">startingPage</text>
</g>
<!-- A1 -->
<g id="node2" class="node">
<title>A1</title>
<polygon fill="none" stroke="#000000" points="75.3649,-36 -.1219,-36 -.1219,0 75.3649,0 75.3649,-36"/>
<text text-anchor="middle" x="37.6215" y="-15" font-family="Helvetica,sans-Serif" font-size="10.00" fill="#000000">tanksPage</text>
</g>
<!-- A0&#45;&gt;A1 -->
<g id="edge1" class="edge">
<title>A0&#45;&gt;A1</title>
<path fill="none" stroke="#000000" d="M67.4422,-85.7616C60.1724,-74.1316 51.9287,-58.8357 45.7702,-45.72"/>
<polygon fill="#000000" stroke="#000000" points="41.5178,-36.2121 49.7084,-43.5035 43.5592,-40.7764 45.6006,-45.3407 45.6006,-45.3407 45.6006,-45.3407 43.5592,-40.7764 41.4927,-47.178 41.5178,-36.2121 41.5178,-36.2121"/>
</g>
<!-- A2 -->
<g id="node3" class="node">
<title>A2</title>
<polygon fill="none" stroke="#000000" points="163.9148,-36 93.3282,-36 93.3282,0 163.9148,0 163.9148,-36"/>
<text text-anchor="middle" x="128.6215" y="-15" font-family="Helvetica,sans-Serif" font-size="10.00" fill="#000000">mapPage</text>
</g>
<!-- A0&#45;&gt;A2 -->
<g id="edge2" class="edge">
<title>A0&#45;&gt;A2</title>
<path fill="none" stroke="#000000" d="M86.7409,-85.7616C91.876,-73.9036 100.0313,-58.2345 107.8923,-44.951"/>
<polygon fill="#000000" stroke="#000000" points="113.2468,-36.2121 111.8594,-47.0899 110.6346,-40.4755 108.0223,-44.7388 108.0223,-44.7388 108.0223,-44.7388 110.6346,-40.4755 104.1853,-42.3878 113.2468,-36.2121 113.2468,-36.2121"/>
</g>
<!-- A1&#45;&gt;A0 -->
<g id="edge4" class="edge">
<title>A1&#45;&gt;A0</title>
<path fill="none" stroke="#000000" d="M52.7844,-36.2121C60.0527,-47.8366 68.2972,-63.1313 74.4589,-76.2503"/>
<polygon fill="#000000" stroke="#000000" points="78.7141,-85.7616 70.5226,-78.4712 76.6722,-81.1975 74.6303,-76.6335 74.6303,-76.6335 74.6303,-76.6335 76.6722,-81.1975 78.7379,-74.7957 78.7141,-85.7616 78.7141,-85.7616"/>
</g>
<!-- A2&#45;&gt;A0 -->
<g id="edge3" class="edge">
<title>A2&#45;&gt;A0</title>
<path fill="none" stroke="#000000" d="M124.5135,-36.2121C119.3828,-48.0645 111.2295,-63.7325 103.3681,-77.0195"/>
<polygon fill="#000000" stroke="#000000" points="98.0129,-85.7616 99.3992,-74.8837 100.6247,-81.498 103.2365,-77.2343 103.2365,-77.2343 103.2365,-77.2343 100.6247,-81.498 107.0738,-79.585 98.0129,-85.7616 98.0129,-85.7616"/>
</g>
</g>
</svg>
