<svg xmlns="http://www.w3.org/2000/svg" xmlns:xlink="http://www.w3.org/1999/xlink" width="382pt" height="388pt" viewBox="0 0 381.95 388"><g id="graph0" class="graph" transform="scale(1 1) rotate(0) translate(4 384)"><title>G</title><polygon fill="#fff" stroke="transparent" points="-4 4 -4 -384 377.945 -384 377.945 4 -4 4"/><g id="node1" class="node"><title>A0</title><polygon fill="none" stroke="#000" points="255.344 -380 177.195 -380 177.195 -344 255.344 -344 255.344 -380"/><text x="216.269" y="-359" fill="#000" font-family="Helvetica,sans-Serif" font-size="10" text-anchor="middle">Java_Code</text></g><g id="node2" class="node"><title>A1</title><polygon fill="none" stroke="#000" points="140.49 -294 50.049 -294 50.049 -258 140.49 -258 140.49 -294"/><text x="95.269" y="-279" fill="#000" font-family="Helvetica,sans-Serif" font-size="10" text-anchor="middle">Player</text><text x="95.269" y="-267" fill="#000" font-family="Helvetica,sans-Serif" font-size="10" text-anchor="middle">(TankFactory)</text></g><g id="edge1" class="edge"><title>A0-&gt;A1</title><path fill="none" stroke="#000" d="M190.9039,-343.9716C172.9149,-331.186 148.5838,-313.8928 128.9656,-299.9493"/><polygon fill="#000" stroke="#000" points="120.602 -294.005 131.36 -296.13 124.677 -296.901 128.753 -299.798 128.753 -299.798 128.753 -299.798 124.677 -296.901 126.146 -303.466 120.602 -294.005 120.602 -294.005"/></g><g id="node3" class="node"><title>A2</title><polygon fill="none" stroke="#000" points="274.064 -294 158.475 -294 158.475 -258 274.064 -258 274.064 -294"/><text x="216.269" y="-273" fill="#000" font-family="Helvetica,sans-Serif" font-size="10" text-anchor="middle">ExplosionAnimation</text></g><g id="edge2" class="edge"><title>A0-&gt;A2</title><path fill="none" stroke="#000" d="M216.2695,-343.7616C216.2695,-332.3597 216.2695,-317.4342 216.2695,-304.494"/><polygon fill="#000" stroke="#000" points="216.269 -294.212 220.77 -304.212 216.269 -299.212 216.27 -304.212 216.27 -304.212 216.27 -304.212 216.269 -299.212 211.77 -304.212 216.269 -294.212 216.269 -294.212"/></g><g id="node4" class="node"><title>A3</title><polygon fill="none" stroke="#000" points="374.122 -294 292.417 -294 292.417 -258 374.122 -258 374.122 -294"/><text x="333.269" y="-273" fill="#000" font-family="Helvetica,sans-Serif" font-size="10" text-anchor="middle">MenuPages</text></g><g id="edge3" class="edge"><title>A0-&gt;A3</title><path fill="none" stroke="#000" d="M240.7965,-343.9716C258.1909,-331.186 281.7177,-313.8928 300.6873,-299.9493"/><polygon fill="#000" stroke="#000" points="308.775 -294.005 303.382 -303.553 304.746 -296.966 300.717 -299.927 300.717 -299.927 300.717 -299.927 304.746 -296.966 298.052 -296.301 308.775 -294.005 308.775 -294.005"/></g><g id="node5" class="node"><title>A4</title><polygon fill="none" stroke="#000" points="104.766 -208 11.773 -208 11.773 -172 104.766 -172 104.766 -208"/><text x="58.27" y="-193" fill="#000" font-family="Helvetica,sans-Serif" font-size="10" text-anchor="middle">Weapon</text><text x="58.27" y="-181" fill="#000" font-family="Helvetica,sans-Serif" font-size="10" text-anchor="middle">(BulletFactory)</text></g><g id="edge4" class="edge"><title>A1-&gt;A4</title><path fill="none" stroke="#000" d="M82.6625,-246.6972C77.1728,-233.9374 70.91,-219.3807 66.1049,-208.2121"/><polygon fill="#000" stroke="#000" points="82.68 -246.738 88.726 -250.669 87.423 -257.762 81.377 -253.831 82.68 -246.738"/></g><g id="node8" class="node"><title>A7</title><polygon fill="none" stroke="#000" points="186.492 -122 106.047 -122 106.047 -86 186.492 -86 186.492 -122"/><text x="146.269" y="-101" fill="#000" font-family="Helvetica,sans-Serif" font-size="10" text-anchor="middle">Fisica FBox</text></g><g id="edge8" class="edge"><title>A1-&gt;A7</title><path fill="none" stroke="#000" d="M104.0679,-246.3271C114.6669,-210.5813 132.1383,-151.6582 140.9033,-122.0977"/><polygon fill="none" stroke="#000" points="104.042 -246.413 106.172 -253.303 100.631 -257.918 98.502 -251.029 104.042 -246.413"/></g><g id="node6" class="node"><title>A5</title><polygon fill="none" stroke="#000" points="88.31 -122 .229 -122 .229 -86 88.31 -86 88.31 -122"/><text x="44.27" y="-101" fill="#000" font-family="Helvetica,sans-Serif" font-size="10" text-anchor="middle">Fisica FCircle</text></g><g id="edge5" class="edge"><title>A4-&gt;A5</title><path fill="none" stroke="#000" d="M53.3718,-159.9138C51.3256,-147.3446 49.0153,-133.1528 47.2343,-122.2121"/><polygon fill="none" stroke="#000" points="53.372 -159.917 58.284 -165.197 55.3 -171.762 50.388 -166.482 53.372 -159.917"/></g><g id="node7" class="node"><title>A6</title><polygon fill="none" stroke="#000" points="138.051 -36 52.488 -36 52.488 0 138.051 0 138.051 -36"/><text x="95.269" y="-15" fill="#000" font-family="Helvetica,sans-Serif" font-size="10" text-anchor="middle">Fisica FBody</text></g><g id="edge6" class="edge"><title>A5-&gt;A6</title><path fill="none" stroke="#000" d="M60.2696,-77.0195C68.1491,-63.7325 77.4406,-48.0645 84.4693,-36.2121"/><polygon fill="none" stroke="#000" points="57.176 -75.375 55.085 -85.762 63.197 -78.946 57.176 -75.375"/></g><g id="edge7" class="edge"><title>A7-&gt;A6</title><path fill="none" stroke="#000" d="M130.2694,-77.0195C122.3899,-63.7325 113.0984,-48.0645 106.0697,-36.2121"/><polygon fill="none" stroke="#000" points="127.342 -78.946 135.454 -85.762 133.363 -75.375 127.342 -78.946"/></g></g></svg>